<?xml version="1.0" encoding="UTF-8" standalone="no"?>
<!-- Created with Inkscape (http://www.inkscape.org/) -->

<svg
   xmlns:dc="http://purl.org/dc/elements/1.1/"
   xmlns:cc="http://creativecommons.org/ns#"
   xmlns:rdf="http://www.w3.org/1999/02/22-rdf-syntax-ns#"
   xmlns:svg="http://www.w3.org/2000/svg"
   xmlns="http://www.w3.org/2000/svg"
   xmlns:sodipodi="http://sodipodi.sourceforge.net/DTD/sodipodi-0.dtd"
   xmlns:inkscape="http://www.inkscape.org/namespaces/inkscape"
   width="10mm"
   height="10mm"
   viewBox="0 0 10 10"
   version="1.1"
   id="svg8"
   inkscape:version="0.92.4 (5da689c313, 2019-01-14)"
   sodipodi:docname="pencil.svg">
  <defs
     id="defs2" />
  <sodipodi:namedview
     id="base"
     pagecolor="#ffffff"
     bordercolor="#666666"
     borderopacity="1.0"
     inkscape:pageopacity="0.0"
     inkscape:pageshadow="2"
     inkscape:zoom="5.6"
     inkscape:cx="0.4537549"
     inkscape:cy="9.0080324"
     inkscape:document-units="mm"
     inkscape:current-layer="layer1"
     showgrid="false"
     inkscape:window-width="1280"
     inkscape:window-height="961"
     inkscape:window-x="-8"
     inkscape:window-y="-8"
     inkscape:window-maximized="1" />
  <metadata
     id="metadata5">
    <rdf:RDF>
      <cc:Work
         rdf:about="">
        <dc:format>image/svg+xml</dc:format>
        <dc:type
           rdf:resource="http://purl.org/dc/dcmitype/StillImage" />
        <dc:title></dc:title>
      </cc:Work>
    </rdf:RDF>
  </metadata>
  <g
     inkscape:label="Layer 1"
     inkscape:groupmode="layer"
     id="layer1"
     transform="translate(0,-287)">
    <g
       id="g832"
       transform="matrix(0.92967537,0,0,0.93081356,15.601381,18.622259)">
      <path
         style="fill:#fdfdfb;stroke-width:0.05371622"
         d="m -16.781536,293.69761 v -5.37162 h 5.371622 5.371621 v 5.37162 5.37162 h -5.371621 -5.371622 z"
         id="path848"
         inkscape:connector-curvature="0" />
      <path
         style="fill:#fde9a2;stroke-width:0.05371622"
         d="m -16.761354,298.95685 c 0.02043,-0.0711 0.05983,-0.25988 0.08756,-0.41942 0.106628,-0.61363 0.219062,-0.83303 0.408344,-0.79685 0.09527,0.0182 0.257701,-0.11538 0.794791,-0.65371 0.626698,-0.62813 0.677481,-0.69436 0.709026,-0.92466 0.02105,-0.15365 0.01223,-0.26151 -0.02317,-0.28339 -0.03143,-0.0194 -0.257771,-0.0479 -0.502978,-0.0633 -0.245207,-0.0154 -0.469454,-0.0516 -0.498326,-0.0804 -0.06429,-0.0643 5.004777,-5.15306 5.133114,-5.15306 0.113496,0 0.263523,0.17008 0.264343,0.29967 4.3e-4,0.0644 0.155609,0.22428 0.4131247,0.4255 0.6505501,0.50833 1.6811543,1.52489 1.6811543,1.65825 0,0.0798 -0.765108,0.87979 -2.511233,2.62562 l -2.511233,2.5108 -1.020608,0.27418 c -0.561335,0.1508 -1.046867,0.2956 -1.078962,0.32179 -0.09575,0.0781 -0.497606,0.20634 -0.820843,0.26188 -0.166408,0.0286 -0.360765,0.0687 -0.431905,0.0892 -0.116832,0.0336 -0.125751,0.0247 -0.0922,-0.0921 z m 8.2106505,-6.45742 c -0.1915214,-0.183 -0.6124927,-0.63488 -0.935491,-1.00418 -0.3229983,-0.3693 -0.6764635,-0.71991 -0.7854775,-0.77913 -0.311455,-0.1692 -0.291073,-0.29285 0.115236,-0.69916 0.1914329,-0.19144 0.394897,-0.34806 0.4521413,-0.34806 0.1306298,0 0.2818802,0.16258 0.2818802,0.30299 0,0.0586 0.070353,0.15855 0.1563394,0.22212 0.2956804,0.2186 1.4285929,1.23142 1.6799811,1.50189 0.2774147,0.29847 0.2953441,0.45875 0.063151,0.56454 -0.06976,0.0318 -0.1268363,0.0907 -0.1268363,0.1309 0,0.0402 -0.058382,0.0997 -0.1297381,0.13221 -0.071356,0.0325 -0.1406522,0.10085 -0.1539921,0.15186 -0.013339,0.051 -0.079316,0.10715 -0.146613,0.12475 -0.097969,0.0256 -0.1917717,-0.0343 -0.470581,-0.30073 z M -9.70216,290.67901 c -0.145847,-0.18912 -0.2574167,-0.25141 -0.2574167,-0.14372 0,0.0723 0.2598984,0.31004 0.3426106,0.31343 0.025944,10e-4 -0.012393,-0.0753 -0.085194,-0.16971 z m 0.2668101,-0.28428 c -0.1196819,-0.18476 -0.2556457,-0.25047 -0.2556457,-0.12355 0,0.0658 0.2607605,0.30538 0.33622,0.30896 0.02243,0.001 -0.013829,-0.0824 -0.080574,-0.18541 z m 1.427929,0.79165 c -0.3487483,-0.37669 -0.8461475,-0.89035 -1.105332,-1.14147 -0.2591845,-0.25112 -0.4711471,-0.48215 -0.4710273,-0.5134 1.074e-4,-0.0312 0.2624999,-0.31527 0.583068,-0.63117 0.6688233,-0.65907 0.7084605,-0.67254 1.2214917,-0.41499 0.4016829,0.20165 0.8765369,0.59342 1.2131614,1.0009 0.3168859,0.38358 0.4795032,0.70482 0.514655,1.01669 l 0.026311,0.23343 -0.5520791,0.56745 c -0.3816553,0.39227 -0.589753,0.56744 -0.6741208,0.56744 -0.087375,0 -0.3021575,-0.19454 -0.7561279,-0.68488 z"
         id="path846"
         inkscape:connector-curvature="0" />
      <path
         style="fill:#fddb60;stroke-width:0.05371622"
         d="m -16.761868,298.95685 c 0.02015,-0.0711 0.05068,-0.20186 0.06785,-0.29049 0.01717,-0.0886 0.07848,-0.3258 0.136258,-0.52704 0.07832,-0.27282 0.126661,-0.36164 0.190028,-0.34916 0.180877,0.0356 0.207315,0.18657 0.07895,0.45077 -0.06691,0.13773 -0.112858,0.25922 -0.102101,0.26997 0.01076,0.0108 0.09939,-0.0628 0.196954,-0.16346 0.200994,-0.20738 0.26722,-0.20213 0.527,0.0418 0.269232,0.25279 0.235103,0.33579 -0.188006,0.45721 -0.199422,0.0572 -0.435102,0.11811 -0.523733,0.13528 -0.08863,0.0172 -0.219354,0.0477 -0.290494,0.0679 -0.116646,0.033 -0.125748,0.0239 -0.09271,-0.0927 z m 3.203305,-1.41294 v -0.50471 l -0.443159,-0.0386 c -0.648057,-0.0564 -0.653067,-0.061 -0.611318,-0.5559 l 0.03462,-0.41045 2.268896,-2.26951 c 1.247892,-1.24823 2.290977,-2.26951 2.3179671,-2.26951 0.1486172,0 1.6434627,1.33737 1.6434627,1.47033 0,0.10096 -5.0150508,5.08304 -5.1166818,5.08304 -0.08259,0 -0.09379,-0.0603 -0.09379,-0.50471 z m -2.148649,-1.87301 c 0,-0.0374 1.124043,-1.191 2.497873,-2.56366 l 2.497872,-2.49573 0.146929,0.14693 0.146929,0.14693 -2.416284,2.41673 -2.416283,2.41673 h -0.228518 c -0.148403,0 -0.228518,-0.0238 -0.228518,-0.0679 z m 6.9782647,-3.40892 c -0.5856873,-0.6102 -1.1449064,-1.25115 -1.229474,-1.40917 -0.1002037,-0.18723 0.073687,-0.13267 0.3861971,0.12118 0.4233063,0.34386 0.4683898,0.3563 0.2252589,0.0622 -0.1209941,-0.14636 -0.2627652,-0.33259 -0.3150461,-0.41383 -0.149069,-0.23166 0.018843,-0.19274 0.3583682,0.083 0.4233064,0.34386 0.4683899,0.3563 0.225259,0.0622 -0.1209942,-0.14636 -0.2627652,-0.33259 -0.3150461,-0.41383 -0.1467076,-0.22799 0.011595,-0.1929 0.3556346,0.0788 0.4987508,0.39391 1.6616998,1.56036 1.6449119,1.64987 -0.00869,0.0463 -0.068559,0.10745 -0.1330416,0.13583 -0.064483,0.0284 -0.1290215,0.0967 -0.1434196,0.15171 -0.014398,0.055 -0.071225,0.11188 -0.1262826,0.12628 -0.055057,0.0144 -0.1233254,0.0791 -0.1517058,0.14373 -0.1073084,0.24447 -0.2506775,0.17512 -0.7816139,-0.37804 z m 0.335802,-1.56745 c -0.5956419,-0.61766 -1.0829855,-1.15592 -1.0829855,-1.19615 0,-0.0402 0.2507747,-0.32305 0.5572773,-0.62851 0.5386087,-0.53677 0.563351,-0.55407 0.738598,-0.51626 0.6087733,0.13134 1.6748963,1.07666 2.0096815,1.78198 0.2168899,0.45693 0.2012177,0.49943 -0.4150819,1.12572 -0.3010493,0.30593 -0.5872192,0.55623 -0.6359328,0.55623 -0.048714,0 -0.5759141,-0.50535 -1.1715566,-1.12301 z m -2.0229997,-0.13175 c -0.09576,-0.14614 -0.061,-0.28494 0.08277,-0.33057 0.05485,-0.0174 0.114281,-0.0775 0.132075,-0.13358 0.01779,-0.0561 0.07946,-0.11689 0.137038,-0.13517 0.05758,-0.0183 0.1046853,-0.067 0.1046853,-0.10829 0,-0.0413 0.050625,-0.10216 0.1125006,-0.13527 0.093075,-0.0498 0.1348137,-0.0392 0.2417229,0.0612 0.1773731,0.16663 0.1745799,0.37125 -0.00507,0.37125 -0.1074324,0 -0.1342905,0.0269 -0.1342905,0.13429 0,0.10743 -0.026858,0.13429 -0.1342906,0.13429 -0.1074324,0 -0.1342907,0.0269 -0.1342907,0.13429 0,0.11317 -0.02515,0.13429 -0.15991,0.13429 -0.108749,0 -0.186475,-0.0405 -0.242942,-0.12672 z"
         id="path844"
         inkscape:connector-curvature="0" />
      <path
         style="fill:#ec908f;stroke-width:0.05371622"
         d="m -16.761868,298.95685 c 0.02015,-0.0711 0.05068,-0.20186 0.06785,-0.29049 0.01717,-0.0886 0.07848,-0.3258 0.136258,-0.52704 0.07832,-0.27282 0.126661,-0.36164 0.190028,-0.34916 0.180877,0.0356 0.207315,0.18657 0.07895,0.45077 -0.06691,0.13773 -0.112858,0.25922 -0.102101,0.26997 0.01076,0.0108 0.09939,-0.0628 0.196954,-0.16346 0.200994,-0.20738 0.26722,-0.20213 0.527,0.0418 0.269232,0.25279 0.235103,0.33579 -0.188006,0.45721 -0.199422,0.0572 -0.435102,0.11811 -0.523733,0.13528 -0.08863,0.0172 -0.219354,0.0477 -0.290494,0.0679 -0.116646,0.033 -0.125748,0.0239 -0.09271,-0.0927 z m 3.310737,-1.4435 c 0,-0.56119 -1.23e-4,-0.56133 -0.537824,-0.60903 -0.192399,-0.0171 -0.394248,-0.0481 -0.448553,-0.0689 -0.08053,-0.0309 0.354798,-0.49151 2.36096,-2.49802 l 2.4596963,-2.46014 0.1490389,0.088 c 0.081972,0.0484 0.3610987,0.30109 0.6202826,0.56148 l 0.4712432,0.47344 -2.496918,2.49735 c -1.373305,1.37354 -2.515145,2.49735 -2.537422,2.49735 -0.02228,0 -0.0405,-0.2167 -0.0405,-0.48156 z m -2.202364,-1.86875 c 0,-0.083 4.865185,-4.90138 4.948962,-4.90138 0.04796,0 0.118652,0.0379 0.157083,0.0842 0.06059,0.073 -0.247325,0.40145 -2.316423,2.47094 -2.298498,2.29893 -2.393718,2.38675 -2.58796,2.38675 -0.110915,0 -0.201662,-0.0182 -0.201662,-0.0405 z m 6.9245477,-3.38262 c -0.5856873,-0.6102 -1.1449064,-1.25115 -1.229474,-1.40917 -0.1002037,-0.18723 0.073687,-0.13267 0.3861971,0.12118 0.4233063,0.34386 0.4683898,0.3563 0.2252589,0.0622 -0.1209941,-0.14636 -0.2627652,-0.33259 -0.3150461,-0.41383 -0.149069,-0.23166 0.018843,-0.19274 0.3583682,0.083 0.4233064,0.34386 0.4683899,0.3563 0.225259,0.0622 -0.1209942,-0.14636 -0.2627652,-0.33259 -0.3150461,-0.41383 -0.1467076,-0.22799 0.011595,-0.1929 0.3556346,0.0788 0.4987508,0.39391 1.6616998,1.56036 1.6449119,1.64987 -0.00869,0.0463 -0.068559,0.10745 -0.1330416,0.13583 -0.064483,0.0284 -0.1290215,0.0967 -0.1434196,0.15171 -0.014398,0.055 -0.071225,0.11188 -0.1262826,0.12628 -0.055057,0.0144 -0.1233254,0.0791 -0.1517058,0.14373 -0.1073084,0.24447 -0.2506775,0.17512 -0.7816139,-0.37804 z m 0.335802,-1.56745 c -0.5956419,-0.61766 -1.0829855,-1.15592 -1.0829855,-1.19615 0,-0.0402 0.2507747,-0.32305 0.5572773,-0.62851 0.5386087,-0.53677 0.563351,-0.55407 0.738598,-0.51626 0.6087733,0.13134 1.6748963,1.07666 2.0096815,1.78198 0.2168899,0.45693 0.2012177,0.49943 -0.4150819,1.12572 -0.3010493,0.30593 -0.5872192,0.55623 -0.6359328,0.55623 -0.048714,0 -0.5759141,-0.50535 -1.1715566,-1.12301 z m -2.0229997,-0.13175 c -0.09576,-0.14614 -0.061,-0.28494 0.08277,-0.33057 0.05485,-0.0174 0.114281,-0.0775 0.132075,-0.13358 0.01779,-0.0561 0.07946,-0.11689 0.137038,-0.13517 0.05758,-0.0183 0.1046853,-0.067 0.1046853,-0.10829 0,-0.0413 0.050625,-0.10216 0.1125006,-0.13527 0.093075,-0.0498 0.1348137,-0.0392 0.2417229,0.0612 0.1773731,0.16663 0.1745799,0.37125 -0.00507,0.37125 -0.1074324,0 -0.1342905,0.0269 -0.1342905,0.13429 0,0.10743 -0.026858,0.13429 -0.1342906,0.13429 -0.1074324,0 -0.1342907,0.0269 -0.1342907,0.13429 0,0.11317 -0.02515,0.13429 -0.15991,0.13429 -0.108749,0 -0.186475,-0.0405 -0.242942,-0.12672 z"
         id="path842"
         inkscape:connector-curvature="0" />
      <path
         style="fill:#fdd718;stroke-width:0.05371622"
         d="m -16.781536,299.01552 c 0,-0.0295 0.0256,-0.0537 0.05689,-0.0537 0.03129,0 0.04287,-0.0227 0.02573,-0.0504 -0.01713,-0.0277 0.03297,-0.28153 0.111332,-0.56402 0.115101,-0.4149 0.161773,-0.51361 0.242848,-0.51361 0.145851,0 0.126971,0.16522 -0.06156,0.53869 -0.08906,0.17642 -0.145951,0.32077 -0.126432,0.32077 0.01952,0 0.152735,-0.10967 0.296034,-0.24371 0.289672,-0.27095 0.327194,-0.26943 0.607017,0.0246 0.09864,0.10364 0.139048,0.18496 0.107432,0.2162 -0.03875,0.0383 -1.155034,0.37894 -1.241749,0.37894 -0.0096,0 -0.01754,-0.0242 -0.01754,-0.0537 z m 3.330405,-1.50217 c 0,-0.56119 -1.23e-4,-0.56133 -0.537824,-0.60903 -0.192399,-0.0171 -0.394248,-0.0481 -0.448553,-0.0689 -0.08053,-0.0309 0.354798,-0.49151 2.36096,-2.49802 l 2.4596963,-2.46014 0.1490389,0.088 c 0.081972,0.0484 0.3610987,0.30109 0.6202826,0.56148 l 0.4712432,0.47344 -2.496918,2.49735 c -1.373305,1.37354 -2.515145,2.49735 -2.537422,2.49735 -0.02228,0 -0.0405,-0.2167 -0.0405,-0.48156 z m -2.202364,-1.86875 c 0,-0.083 4.865185,-4.90138 4.948962,-4.90138 0.04796,0 0.118652,0.0379 0.157083,0.0842 0.06059,0.073 -0.247325,0.40145 -2.316423,2.47094 -2.298498,2.29893 -2.393718,2.38675 -2.58796,2.38675 -0.110915,0 -0.201662,-0.0182 -0.201662,-0.0405 z m 6.9515846,-3.40836 c -1.3904926,-1.44128 -1.3795826,-1.73903 0.014551,-0.3971 0.7101456,0.68356 0.8167137,0.84612 0.577228,0.88055 -0.07907,0.0114 -0.2458505,-0.12488 -0.591779,-0.48345 z m 0.2940136,-0.24243 c -0.5308607,-0.54122 -1.068234,-1.17222 -1.068234,-1.25435 0,-0.12138 0.3697937,0.16929 1.0573527,0.8311 0.7075328,0.68104 0.8166422,0.84643 0.5804429,0.87984 -0.0741,0.0105 -0.2487942,-0.12956 -0.5695616,-0.45659 z m 0.2431486,-0.29473 c -1.3904931,-1.44128 -1.3795828,-1.73903 0.014551,-0.3971 0.7101455,0.68355 0.8167137,0.84612 0.577228,0.88055 -0.07907,0.0114 -0.2458505,-0.12489 -0.591779,-0.48345 z m 0.3154678,-0.56563 c -0.323753,-0.34965 -0.6341763,-0.70522 -0.6898301,-0.79016 l -0.1011884,-0.15444 0.6417363,-0.60421 c 0.6181979,-0.58205 0.6467083,-0.60164 0.7772704,-0.53405 0.2004571,0.10376 0.6295154,0.55003 0.8526778,0.88689 0.10765,0.16249 0.2117058,0.30758 0.2312354,0.32242 0.01953,0.0148 0.05153,0.11238 0.071111,0.21675 0.034602,0.18444 0.020348,0.20481 -0.507542,0.72505 -0.2987287,0.2944 -0.5754725,0.54252 -0.6149862,0.55137 -0.039513,0.009 -0.3367308,-0.26997 -0.6604842,-0.61962 z m -2.4738816,-0.52723 c -0.137761,-0.0965 -0.158768,-0.28117 -0.03729,-0.32779 0.112026,-0.043 0.301903,0.13831 0.282373,0.26961 -0.02104,0.14145 -0.09958,0.1601 -0.245088,0.0582 z m 0.262319,-0.27297 c -0.132485,-0.0928 -0.150219,-0.27766 -0.03102,-0.3234 0.1018795,-0.0391 0.293438,0.12574 0.293438,0.2525 0,0.13075 -0.1277104,0.16525 -0.262415,0.0709 z m 0.2743673,-0.26453 c -0.1386372,-0.0971 -0.1577553,-0.28104 -0.034141,-0.32848 0.0521,-0.02 0.1391911,0.0212 0.2239955,0.10605 0.1167555,0.11675 0.1277463,0.15201 0.069328,0.2224 -0.086356,0.10405 -0.1106667,0.10406 -0.2591825,3e-5 z"
         id="path840"
         inkscape:connector-curvature="0" />
      <path
         style="fill:#ce6c6c;stroke-width:0.05371622"
         d="m -16.781536,299.01552 c 0,-0.0295 0.0256,-0.0537 0.05689,-0.0537 0.03129,0 0.04287,-0.0227 0.02573,-0.0504 -0.01713,-0.0277 0.03297,-0.28153 0.111332,-0.56402 0.115101,-0.4149 0.161773,-0.51361 0.242848,-0.51361 0.145851,0 0.126971,0.16522 -0.06156,0.53869 -0.08906,0.17642 -0.145951,0.32077 -0.126432,0.32077 0.01952,0 0.152735,-0.10967 0.296034,-0.24371 0.289672,-0.27095 0.327194,-0.26943 0.607017,0.0246 0.09864,0.10364 0.139048,0.18496 0.107432,0.2162 -0.03875,0.0383 -1.155034,0.37894 -1.241749,0.37894 -0.0096,0 -0.01754,-0.0242 -0.01754,-0.0537 z m 3.360749,-1.07688 c -0.01559,-0.0429 -0.03484,-0.28264 -0.04277,-0.53274 l -0.01443,-0.45471 -0.413158,-0.0569 c -0.227237,-0.0313 -0.425771,-0.0695 -0.441188,-0.085 -0.01542,-0.0154 1.070971,-1.1106 2.414195,-2.43375 l 2.4422246,-2.40572 0.2013279,0.16148 c 0.1107306,0.0888 0.3580814,0.32079 0.5496689,0.51548 l 0.34834,0.35399 -2.5079324,2.50793 c -1.671832,1.67183 -2.517381,2.48192 -2.536276,2.42992 z m 4.7188766,-5.7024 c -1.3904926,-1.44128 -1.3795826,-1.73903 0.014551,-0.3971 0.7101456,0.68356 0.8167137,0.84612 0.577228,0.88055 -0.07907,0.0114 -0.2458505,-0.12488 -0.591779,-0.48345 z m 0.2940136,-0.24243 c -0.5308607,-0.54122 -1.068234,-1.17222 -1.068234,-1.25435 0,-0.12138 0.3697937,0.16929 1.0573527,0.8311 0.7075328,0.68104 0.8166422,0.84643 0.5804429,0.87984 -0.0741,0.0105 -0.2487942,-0.12956 -0.5695616,-0.45659 z m 0.2431486,-0.29473 c -1.3904931,-1.44128 -1.3795828,-1.73903 0.014551,-0.3971 0.7101455,0.68355 0.8167137,0.84612 0.577228,0.88055 -0.07907,0.0114 -0.2458505,-0.12489 -0.591779,-0.48345 z m 0.3154678,-0.56563 c -0.323753,-0.34965 -0.6341763,-0.70522 -0.6898301,-0.79016 l -0.1011884,-0.15444 0.6417363,-0.60421 c 0.6181979,-0.58205 0.6467083,-0.60164 0.7772704,-0.53405 0.2004571,0.10376 0.6295154,0.55003 0.8526778,0.88689 0.10765,0.16249 0.2117058,0.30758 0.2312354,0.32242 0.01953,0.0148 0.05153,0.11238 0.071111,0.21675 0.034602,0.18444 0.020348,0.20481 -0.507542,0.72505 -0.2987287,0.2944 -0.5754725,0.54252 -0.6149862,0.55137 -0.039513,0.009 -0.3367308,-0.26997 -0.6604842,-0.61962 z m -2.4738816,-0.52723 c -0.137761,-0.0965 -0.158768,-0.28117 -0.03729,-0.32779 0.112026,-0.043 0.301903,0.13831 0.282373,0.26961 -0.02104,0.14145 -0.09958,0.1601 -0.245088,0.0582 z m 0.262319,-0.27297 c -0.132485,-0.0928 -0.150219,-0.27766 -0.03102,-0.3234 0.1018795,-0.0391 0.293438,0.12574 0.293438,0.2525 0,0.13075 -0.1277104,0.16525 -0.262415,0.0709 z m 0.2743673,-0.26453 c -0.1386372,-0.0971 -0.1577553,-0.28104 -0.034141,-0.32848 0.0521,-0.02 0.1391911,0.0212 0.2239955,0.10605 0.1167555,0.11675 0.1277463,0.15201 0.069328,0.2224 -0.086356,0.10405 -0.1106667,0.10406 -0.2591825,3e-5 z"
         id="path838"
         inkscape:connector-curvature="0" />
      <path
         style="fill:#fd990a;stroke-width:0.05371622"
         d="m -16.745446,299.01688 c 0.03462,-0.0375 0.05047,-0.10753 0.03522,-0.15563 -0.01951,-0.0615 -0.01351,-0.0678 0.02022,-0.0212 0.03469,0.0479 0.135907,-0.0227 0.36597,-0.25515 0.17491,-0.17675 0.344248,-0.32137 0.376308,-0.32137 0.100675,0 0.427282,0.37216 0.372012,0.42389 -0.02801,0.0262 -0.271097,0.11023 -0.540195,0.18667 -0.269099,0.0764 -0.534994,0.1552 -0.590879,0.175 -0.08018,0.0284 -0.08833,0.0216 -0.03866,-0.0322 z m 0.20337,-0.68309 c 0.03626,-0.27782 0.117666,-0.50003 0.183193,-0.50003 0.11238,0 0.09258,0.15405 -0.05539,0.43099 l -0.157185,0.29418 z m 3.121289,-0.39515 c -0.01559,-0.0429 -0.03484,-0.28264 -0.04277,-0.53274 l -0.01443,-0.45471 -0.413158,-0.0569 c -0.227237,-0.0313 -0.425771,-0.0695 -0.441188,-0.085 -0.01542,-0.0154 1.070971,-1.1106 2.414195,-2.43375 l 2.4422246,-2.40572 0.2013279,0.16148 c 0.1107306,0.0888 0.3580814,0.32079 0.5496689,0.51548 l 0.34834,0.35399 -2.5079324,2.50793 c -1.671832,1.67183 -2.517381,2.48192 -2.536276,2.42992 z m 4.7716206,-5.7048 c -0.7618281,-0.77733 -1.050701,-1.15566 -0.7661162,-1.00336 0.2266797,0.12132 1.4371209,1.34616 1.407252,1.424 -0.054496,0.14201 -0.1531428,0.0773 -0.6411358,-0.42064 z m 0.2685811,-0.26858 c -0.7618281,-0.77733 -1.050701,-1.15566 -0.7661163,-1.00336 0.2266798,0.12132 1.437121,1.34616 1.4072521,1.424 -0.054496,0.14201 -0.1531428,0.0773 -0.6411358,-0.42064 z m 0.2956884,-0.24172 c -0.7920714,-0.80978 -1.0770644,-1.18176 -0.7869264,-1.02711 0.2262543,0.1206 1.4306964,1.34338 1.4005686,1.42189 -0.053752,0.14008 -0.1528328,0.0763 -0.6136422,-0.39478 z m -2.2744881,-1.1918 c -0.09765,-0.1079 -0.07465,-0.21825 0.0455,-0.21825 0.09877,0 0.264051,0.19734 0.222111,0.2652 -0.05403,0.0874 -0.163362,0.0682 -0.267609,-0.0469 z m 0.268581,-0.26858 c -0.09765,-0.10791 -0.07465,-0.21825 0.0455,-0.21825 0.098775,0 0.2640516,0.19733 0.2221116,0.2652 -0.054031,0.0874 -0.1633629,0.0682 -0.2676096,-0.0469 z m 0.2685813,-0.26858 c -0.097652,-0.10791 -0.074648,-0.21825 0.045498,-0.21825 0.098776,0 0.2640517,0.19733 0.2221117,0.26519 -0.054031,0.0874 -0.1633628,0.0683 -0.2676093,-0.0469 z"
         id="path836"
         inkscape:connector-curvature="0" />
      <path
         style="fill:#434241;stroke-width:0.05371622"
         d="m -16.745446,299.01688 c 0.03462,-0.0375 0.05047,-0.10753 0.03522,-0.15563 -0.01951,-0.0615 -0.01351,-0.0678 0.02022,-0.0212 0.03469,0.0479 0.135907,-0.0227 0.36597,-0.25515 0.17491,-0.17675 0.344248,-0.32137 0.376308,-0.32137 0.100675,0 0.427282,0.37216 0.372012,0.42389 -0.02801,0.0262 -0.271097,0.11023 -0.540195,0.18667 -0.269099,0.0764 -0.534994,0.1552 -0.590879,0.175 -0.08018,0.0284 -0.08833,0.0216 -0.03866,-0.0322 z m 0.20337,-0.68309 c 0.03626,-0.27782 0.117666,-0.50003 0.183193,-0.50003 0.11238,0 0.09258,0.15405 -0.05539,0.43099 l -0.157185,0.29418 z m 7.8929096,-6.09995 c -0.7618281,-0.77733 -1.050701,-1.15566 -0.7661162,-1.00336 0.2266797,0.12132 1.4371209,1.34616 1.407252,1.424 -0.054496,0.14201 -0.1531428,0.0773 -0.6411358,-0.42064 z m 0.2685811,-0.26858 c -0.7618281,-0.77733 -1.050701,-1.15566 -0.7661163,-1.00336 0.2266798,0.12132 1.437121,1.34616 1.4072521,1.424 -0.054496,0.14201 -0.1531428,0.0773 -0.6411358,-0.42064 z m 0.2956884,-0.24172 c -0.7920714,-0.80978 -1.0770644,-1.18176 -0.7869264,-1.02711 0.2262543,0.1206 1.4306964,1.34338 1.4005686,1.42189 -0.053752,0.14008 -0.1528328,0.0763 -0.6136422,-0.39478 z m -2.2744881,-1.1918 c -0.09765,-0.1079 -0.07465,-0.21825 0.0455,-0.21825 0.09877,0 0.264051,0.19734 0.222111,0.2652 -0.05403,0.0874 -0.163362,0.0682 -0.267609,-0.0469 z m 0.268581,-0.26858 c -0.09765,-0.10791 -0.07465,-0.21825 0.0455,-0.21825 0.098775,0 0.2640516,0.19733 0.2221116,0.2652 -0.054031,0.0874 -0.1633629,0.0682 -0.2676096,-0.0469 z m 0.2685813,-0.26858 c -0.097652,-0.10791 -0.074648,-0.21825 0.045498,-0.21825 0.098776,0 0.2640517,0.19733 0.2221117,0.26519 -0.054031,0.0874 -0.1633628,0.0683 -0.2676093,-0.0469 z"
         id="path834"
         inkscape:connector-curvature="0" />
    </g>
  </g>
</svg>
