<?xml version="1.0" encoding="UTF-8" standalone="no"?>
<!-- Created with Inkscape (http://www.inkscape.org/) -->

<svg
   xmlns:dc="http://purl.org/dc/elements/1.1/"
   xmlns:cc="http://creativecommons.org/ns#"
   xmlns:rdf="http://www.w3.org/1999/02/22-rdf-syntax-ns#"
   xmlns:svg="http://www.w3.org/2000/svg"
   xmlns="http://www.w3.org/2000/svg"
   xmlns:sodipodi="http://sodipodi.sourceforge.net/DTD/sodipodi-0.dtd"
   xmlns:inkscape="http://www.inkscape.org/namespaces/inkscape"
   width="9.2478809mm"
   height="6.0036469mm"
   viewBox="0 0 9.2478809 6.0036469"
   version="1.1"
   id="svg8"
   inkscape:version="0.92.4 (fd57863, 2020-04-02)"
   sodipodi:docname="main.svg">
  <defs
     id="defs2" />
  <sodipodi:namedview
     id="base"
     pagecolor="#ffffff"
     bordercolor="#666666"
     borderopacity="1.0"
     inkscape:pageopacity="0.0"
     inkscape:pageshadow="2"
     inkscape:zoom="11.313709"
     inkscape:cx="21.579656"
     inkscape:cy="8.8872037"
     inkscape:document-units="mm"
     inkscape:current-layer="g5402"
     showgrid="false"
     fit-margin-top="0"
     fit-margin-left="0"
     fit-margin-right="0"
     fit-margin-bottom="0"
     inkscape:pagecheckerboard="false"
     inkscape:window-width="1280"
     inkscape:window-height="926"
     inkscape:window-x="0"
     inkscape:window-y="27"
     inkscape:window-maximized="1" />
  <metadata
     id="metadata5">
    <rdf:RDF>
      <cc:Work
         rdf:about="">
        <dc:format>image/svg+xml</dc:format>
        <dc:type
           rdf:resource="http://purl.org/dc/dcmitype/StillImage" />
        <dc:title></dc:title>
      </cc:Work>
    </rdf:RDF>
  </metadata>
  <g
     inkscape:label="Layer 1"
     inkscape:groupmode="layer"
     id="layer1"
     transform="translate(-0.45679658,-289.43747)">
    <g
       id="g5225"
       transform="translate(-0.80180907,-8.8198944)">
      <g
         id="g5402"
         transform="translate(-12.284226,-6.4255957)">
        <g
           id="g5597"
           transform="matrix(0.13636321,0,0,0.13636321,5.4731547,296.44933)">
          <path
             style="fill:#fab900;stroke-width:0.08466667;fill-opacity:1"
             d="M 59.177816,82.393692 V 60.380358 H 93.086817 126.99582 V 82.393692 104.40703 H 93.086817 59.177816 Z m 14.562667,-10.3613 v -0.03197 l -0.148167,-0.116201 -0.148166,-0.1162 0.1162,0.148167 0.1162,0.148166 h 0.03197 0.03197 z"
             id="path5601"
             inkscape:connector-curvature="0" />
          <path
             style="fill:#110c06;stroke-width:0.08466667"
             d="m 59.177816,60.380148 33.887834,0.02127 33.88783,0.02127 0.0373,43.729572 -0.0489,0.12738 -0.0489,0.12739 H 59.177816 Z M 85.12815,82.408097 59.82881,60.888362 h -0.07149 -0.07149 c 0,0 0.0031,28.673783 1.32e-4,43.010668 h 0.0703 0.0703 C 68.284166,96.763578 85.12815,82.408097 85.12815,82.408097 Z m 41.35967,-21.519739 h -0.0649 -0.0649 l -25.22787,21.43887 -0.0249,0.06567 -0.0249,0.06567 25.25001,21.440462 h 0.0787 0.0788 z m -1.15331,42.799012 -24.5969,-20.912668 h -0.0708 -0.0708 l -7.522514,6.392268 -7.493271,-6.392275 -0.11348,-0.03898 -24.678107,20.951645 h 64.545872 z m 0.095,-42.622797 -32.321496,-0.0034 -32.321501,-0.0034 v 0.02858 0.02858 c 0,0 21.485747,18.238644 32.215662,27.373213 l 0.06709,0.06077 0.07001,-0.05908 32.290205,-27.425266 z"
             id="path5599"
             inkscape:connector-curvature="0"
             sodipodi:nodetypes="cccccccccccccccccccccccccccccccccccccccccccccc" />
        </g>
      </g>
    </g>
  </g>
</svg>
