<?xml version="1.0" encoding="UTF-8" standalone="no"?>
<!-- Created with Inkscape (http://www.inkscape.org/) -->

<svg
   xmlns:dc="http://purl.org/dc/elements/1.1/"
   xmlns:cc="http://creativecommons.org/ns#"
   xmlns:rdf="http://www.w3.org/1999/02/22-rdf-syntax-ns#"
   xmlns:svg="http://www.w3.org/2000/svg"
   xmlns="http://www.w3.org/2000/svg"
   xmlns:sodipodi="http://sodipodi.sourceforge.net/DTD/sodipodi-0.dtd"
   xmlns:inkscape="http://www.inkscape.org/namespaces/inkscape"
   width="15.054mm"
   height="14.81667mm"
   viewBox="0 0 15.054 14.81667"
   version="1.1"
   id="svg117"
   inkscape:version="0.92.4 (f8dce91, 2019-08-02)"
   sodipodi:docname="smallpensil.svg">
  <defs
     id="defs111" />
  <sodipodi:namedview
     id="base"
     pagecolor="#ffffff"
     bordercolor="#666666"
     borderopacity="1.0"
     inkscape:pageopacity="0.0"
     inkscape:pageshadow="2"
     inkscape:zoom="5.6"
     inkscape:cx="-5.2594272"
     inkscape:cy="29.071871"
     inkscape:document-units="mm"
     inkscape:current-layer="layer1"
     showgrid="false"
     fit-margin-top="0"
     fit-margin-left="0"
     fit-margin-right="0"
     fit-margin-bottom="0"
     inkscape:pagecheckerboard="true"
     showborder="false"
     inkscape:window-width="1280"
     inkscape:window-height="926"
     inkscape:window-x="0"
     inkscape:window-y="27"
     inkscape:window-maximized="1" />
  <metadata
     id="metadata114">
    <rdf:RDF>
      <cc:Work
         rdf:about="">
        <dc:format>image/svg+xml</dc:format>
        <dc:type
           rdf:resource="http://purl.org/dc/dcmitype/StillImage" />
        <dc:title></dc:title>
      </cc:Work>
    </rdf:RDF>
  </metadata>
  <g
     inkscape:label="Layer 1"
     inkscape:groupmode="layer"
     id="layer1"
     transform="translate(0,-282.18333)">
    <path
       style="fill:#000000;stroke-width:0.21166848;stroke:none;stroke-opacity:1;fill-opacity:1"
       d="M 0.13103225,296.78799 0,296.57598 l 0.5578756,-1.82896 0.5578746,-1.82895 0.3720468,-0.91575 0.4245351,-1.02933 3.1484262,-3.15597 2.964674,-2.93882 0.5087897,0.1277 0.5087908,0.12769 1.5238012,1.57148 1.523802,1.57148 v 0.50154 0.50155 l -3.0263679,3.02092 -3.026369,3.02092 -2.3826722,0.83926 L 1.2725339,297 H 0.76729816 0.26206351 Z m 5.56902205,-2.42865 0.1230181,-0.12301 -1.4619362,-1.47321 -1.4619363,-1.4732 -0.1390404,0.15629 -0.1390404,0.15629 -0.3780885,1.01587 -0.3780885,1.01587 0.8043148,0.82368 0.8043139,0.82368 1.0517323,-0.39962 1.0517331,-0.39962 z m 5.3697567,-8.44598 -1.7309081,-1.7733 v -0.23017 -0.23016 l 0.6569379,-0.7482 0.6569382,-0.7482 h 0.459004 0.459004 l 1.741607,1.75067 1.741606,1.75068 v 0.32447 0.32447 l -0.698005,0.67652 -0.698005,0.67653 H 13.229355 12.80072 Z"
       id="path3921"
       inkscape:connector-curvature="0"
       sodipodi:nodetypes="ccccccccccccccccccccccccccccccccccccccccccccccccccc" />
  </g>
</svg>
