<?xml version="1.0" encoding="UTF-8" standalone="no"?>
<svg
   xmlns:dc="http://purl.org/dc/elements/1.1/"
   xmlns:cc="http://creativecommons.org/ns#"
   xmlns:rdf="http://www.w3.org/1999/02/22-rdf-syntax-ns#"
   xmlns:svg="http://www.w3.org/2000/svg"
   xmlns="http://www.w3.org/2000/svg"
   xmlns:sodipodi="http://sodipodi.sourceforge.net/DTD/sodipodi-0.dtd"
   xmlns:inkscape="http://www.inkscape.org/namespaces/inkscape"
   sodipodi:docname="weight.svg"
   inkscape:version="1.0 (6e3e5246a0, 2020-05-07)"
   id="svg8"
   version="1.1"
   viewBox="0 0 210 297"
   height="297mm"
   width="210mm">
  <defs
     id="defs2" />
  <sodipodi:namedview
     inkscape:window-maximized="1"
     inkscape:window-y="27"
     inkscape:window-x="0"
     inkscape:window-height="926"
     inkscape:window-width="1280"
     inkscape:snap-global="false"
     showgrid="false"
     inkscape:document-rotation="0"
     inkscape:current-layer="layer1"
     inkscape:document-units="mm"
     inkscape:cy="552.70922"
     inkscape:cx="231.18382"
     inkscape:zoom="0.7"
     inkscape:pageshadow="2"
     inkscape:pageopacity="0.0"
     borderopacity="1.0"
     bordercolor="#666666"
     pagecolor="#ffffff"
     id="base" />
  <metadata
     id="metadata5">
    <rdf:RDF>
      <cc:Work
         rdf:about="">
        <dc:format>image/svg+xml</dc:format>
        <dc:type
           rdf:resource="http://purl.org/dc/dcmitype/StillImage" />
        <dc:title></dc:title>
      </cc:Work>
    </rdf:RDF>
  </metadata>
  <g
     id="layer1"
     inkscape:groupmode="layer"
     inkscape:label="Слой 1">
    <path
       id="path76"
       d="m 44.88741,192.80339 c -3.35274,-1.17659 -5.754917,-4.22095 -6.014169,-7.62195 -0.104304,-1.36832 1.16421,-7.5993 8.916133,-43.79632 6.477017,-30.24396 9.223216,-42.589491 9.692363,-43.572011 1.143415,-2.39463 3.326372,-3.87075 6.37643,-4.31176 0.988684,-0.14296 3.970499,-0.26228 6.626254,-0.26516 l 4.828645,-0.005 v -8.0142 c 0,-6.25025 0.08687,-8.34772 0.394671,-9.52945 1.187789,-4.56023 4.867622,-8.26978 9.077206,-9.15051 0.938196,-0.19629 6.765554,-0.29334 17.612917,-0.29334 14.03039,0 16.40413,0.0565 17.64792,0.42023 3.81459,1.11545 6.90381,4.51521 8.06416,8.87484 0.28822,1.08285 0.37884,3.34737 0.38124,9.52573 l 0.003,8.10519 6.15156,0.10958 c 6.08663,0.10842 6.16905,0.11752 7.80833,0.86204 1.85447,0.84225 3.29717,2.26237 4.06751,4.00385 0.27791,0.62825 4.55989,20.050011 9.51551,43.159471 9.84329,45.90197 9.51445,44.03465 8.22218,46.69036 -0.90556,1.861 -2.52833,3.5418 -4.22294,4.37395 l -1.51194,0.74247 -56.22396,0.0548 c -50.613388,0.0493 -56.34263,0.0131 -57.41316,-0.36255 z m 26.986073,-33.40243 v -7.64873 l 2.007023,-2.40543 c 1.103863,-1.32299 2.086708,-2.40543 2.184101,-2.40543 0.09739,0 2.798265,4.4946 6.001938,9.98802 l 5.824863,9.98802 5.91194,0.0713 c 5.02581,0.0606 5.89028,0.0148 5.76739,-0.30542 -0.0795,-0.20718 -3.52706,-6.07333 -7.661246,-13.03587 -4.134181,-6.96254 -7.653121,-12.91641 -7.819866,-13.23081 -0.275469,-0.5194 0.400926,-1.46233 7.401985,-10.31875 4.237837,-5.36091 7.822787,-9.89594 7.966537,-10.07784 0.20758,-0.26266 -1.04658,-0.33073 -6.093509,-0.33073 h -6.354884 l -5.630243,8.26823 c -3.096636,4.54753 -6.293937,9.22073 -7.105115,10.3849 l -1.474872,2.11666 -0.06922,-10.38489 -0.06921,-10.3849 H 67.240206 61.81932 v 23.68021 23.68021 h 5.027083 5.027083 z m 60.721877,7.00544 c 1.30969,-0.21456 4.01836,-0.7797 6.01927,-1.25588 l 3.63802,-0.86579 V 151.6443 139.00387 h -8.99583 -8.99583 v 4.23333 4.23333 h 3.83645 3.83646 v 5.15007 c 0,6.27351 0.34688,5.83834 -4.63021,5.80866 -5.49335,-0.0328 -8.85554,-1.1702 -11.65876,-3.94416 -2.60007,-2.57292 -3.84146,-6.15888 -3.84801,-11.11561 -0.007,-5.32772 1.20224,-8.71731 4.08155,-11.44044 1.51646,-1.43421 3.724,-2.66341 5.86897,-3.26796 0.90893,-0.25617 2.77188,-0.37282 5.95313,-0.37274 4.09946,1e-4 4.8533,0.0702 6.57642,0.61143 1.07042,0.33623 1.98056,0.5743 2.02253,0.52906 0.042,-0.0453 0.61624,-1.86821 1.27613,-4.05102 l 1.1998,-3.96875 -0.61505,-0.55888 c -1.61827,-1.47049 -9.39674,-2.49636 -15.04668,-1.98444 -5.83942,0.52908 -10.16367,1.91201 -14.11199,4.51313 -5.02161,3.3082 -8.16059,7.99407 -9.492072,14.16978 -0.69525,3.2247 -0.63939,8.59816 0.12102,11.64166 1.190842,4.76627 4.111352,9.5506 7.514112,12.30952 3.17652,2.57547 8.45381,4.64638 13.43819,5.27339 2.56394,0.32253 9.00498,0.12583 12.01238,-0.36683 z m -12.5687,-80.782221 c -9e-4,-6.97567 -0.0422,-7.67438 -0.49793,-8.4217 -1.0549,-1.72992 -0.73003,-1.69862 -17.62504,-1.69862 -16.912796,0 -16.507509,-0.0395 -17.590621,1.71305 -0.502216,0.8126 -0.533336,1.305 -0.533336,8.4385 v 7.57554 h 18.123957 18.12396 l -10e-4,-7.60677 z"
       style="fill:#000000;stroke-width:0.264583" />
  </g>
</svg>
