<?xml version="1.0" encoding="UTF-8" standalone="no"?>
<svg
   xmlns:dc="http://purl.org/dc/elements/1.1/"
   xmlns:cc="http://creativecommons.org/ns#"
   xmlns:rdf="http://www.w3.org/1999/02/22-rdf-syntax-ns#"
   xmlns:svg="http://www.w3.org/2000/svg"
   xmlns="http://www.w3.org/2000/svg"
   xmlns:sodipodi="http://sodipodi.sourceforge.net/DTD/sodipodi-0.dtd"
   xmlns:inkscape="http://www.inkscape.org/namespaces/inkscape"
   width="54.239567mm"
   height="75.377113mm"
   viewBox="0 0 54.239567 75.377113"
   version="1.1"
   id="svg8"
   sodipodi:docname="weight.svg"
   inkscape:version="1.0 (6e3e5246a0, 2020-05-07)">
  <defs
     id="defs2">
    <rect
       x="34.074772"
       y="73.695679"
       width="41.088035"
       height="42.665685"
       id="rect80" />
  </defs>
  <sodipodi:namedview
     id="base"
     pagecolor="#ffffff"
     bordercolor="#666666"
     borderopacity="1.0"
     inkscape:pageopacity="0.0"
     inkscape:pageshadow="2"
     inkscape:zoom="1.4"
     inkscape:cx="146.87461"
     inkscape:cy="140.3977"
     inkscape:document-units="mm"
     inkscape:current-layer="layer1"
     inkscape:document-rotation="0"
     showgrid="false"
     inkscape:window-width="1280"
     inkscape:window-height="926"
     inkscape:window-x="0"
     inkscape:window-y="27"
     inkscape:window-maximized="1"
     fit-margin-top="0"
     fit-margin-left="0"
     fit-margin-right="0"
     fit-margin-bottom="0" />
  <metadata
     id="metadata5">
    <rdf:RDF>
      <cc:Work
         rdf:about="">
        <dc:format>image/svg+xml</dc:format>
        <dc:type
           rdf:resource="http://purl.org/dc/dcmitype/StillImage" />
        <dc:title />
      </cc:Work>
    </rdf:RDF>
  </metadata>
  <g
     inkscape:label="Слой 1"
     inkscape:groupmode="layer"
     id="layer1"
     transform="translate(-26.919718,-34.4351)">
    <path
       d="m 33.013672,33.988281 c -1.416805,0.789482 -2.827051,1.853778 -3.308594,3.480469 -0.774894,2.290149 0.319561,5.149149 2.633041,6.053093 2.020174,1.027985 4.589679,1.325843 6.040925,3.236352 1.265993,1.772853 1.595922,4.174046 1.023952,6.258234 -0.908593,2.587805 -3.653155,4.042944 -6.273376,4.221497 -2.099703,0.04165 -4.503439,0.555828 -5.75177,2.411502 -0.780891,1.373652 -0.622372,3.042128 -0.757035,4.564466 -0.222283,8.973856 -0.135838,17.952352 -0.189615,26.92829 -0.01339,5.136851 -0.02786,10.273696 -0.04058,15.410546 0.433255,0.69833 0.847654,1.43129 1.404297,2.0293 0.146602,0.39516 0.0069,1.76645 0.526677,0.8912 0.24742,-0.51371 0.62054,0.20909 0.973323,0.2631 1.588327,0.73169 3.405835,0.4287 5.100142,0.56007 13.178801,0.0969 26.358834,0.0203 39.5371,-0.11885 1.269589,-0.0831 2.585683,0.1033 3.825146,-0.20195 1.241028,-0.48375 2.123288,-1.58798 2.978376,-2.51157 0.609376,0.0303 0.767049,-0.44914 0.743825,-0.97412 0.160103,-7.154185 0.09971,-14.312492 0.147574,-21.46841 0.02064,-7.949875 0.04246,-15.899749 0.06237,-23.849625 -0.92916,-1.438449 -2.017894,-2.933255 -3.710937,-3.509766 -1.734399,-0.678708 -3.714774,-0.398803 -5.373047,-1.332031 -1.396881,-0.718184 -2.517782,-1.802562 -3.091797,-3.283203 -0.7953,-2.45076 -0.185108,-5.370892 1.828891,-7.061488 1.389455,-1.293478 3.379189,-1.422302 4.958095,-2.387706 2.312933,-1.144383 3.510548,-4.145275 2.436813,-6.529232 -0.608114,-1.579588 -2.155463,-2.529364 -3.626533,-3.152433 -13.989453,-0.0043 -27.978907,-0.0076 -41.96836,-0.0098 l -0.08437,0.05369 z m 21.068359,2.125 c 6.566774,0.05516 13.137712,-0.06822 19.701299,0.169363 1.167778,-0.03914 2.426878,0.464689 2.899307,1.604978 0.524471,1.115204 0.189189,2.573915 -0.673816,3.415131 -1.07048,0.746591 -2.457519,0.479241 -3.684746,0.607049 -9.083936,0.198255 -18.171511,0.180947 -27.257269,0.189151 -3.587513,-0.03326 -7.182942,0.03382 -10.76467,-0.15662 -1.118791,-0.140555 -2.126726,-1.037874 -2.439811,-2.103449 -0.181141,-1.262812 0.08511,-2.856279 1.319316,-3.500993 4.261075,-0.278155 8.539439,-0.176286 12.808202,-0.219615 2.697396,-0.0017 5.394792,-0.0033 8.092188,-0.005 z m 15.470703,8.623047 c -1.579327,1.487156 -2.62708,3.556904 -2.635936,5.750342 -0.140755,1.642074 0.219856,3.325004 1.196771,4.673085 0.500892,0.758957 1.098093,1.457658 1.784869,2.055089 -6.697169,0.164935 -13.398636,0.09613 -20.09753,0.165032 -3.679726,-7.94e-4 -7.359961,0.125862 -11.039189,0.05762 2.419629,-1.658401 3.547188,-4.789322 3.148284,-7.646654 -0.131635,-2.028973 -1.106285,-3.943684 -2.603362,-5.308424 10.22851,-0.0628 20.457025,-0.12465 30.685547,-0.185547 -0.146485,0.146484 -0.292969,0.292969 -0.439454,0.439453 z m 7.72461,14.833984 c 0.810048,0.565184 1.754472,1.199073 1.788739,2.300795 0.364079,3.142142 0.184439,6.318945 0.240001,9.476158 -0.02711,11.22002 -0.0063,22.441918 -0.138115,33.660545 -0.180689,1.6281 -1.586294,3.08116 -3.275391,3.04883 -2.651429,0.20821 -5.306565,0.12064 -7.96014,0.071 -11.072234,-0.0886 -22.145586,0.008 -33.217369,-0.12243 -1.639622,-0.0982 -3.345832,0.0312 -4.9221,-0.49352 -0.410573,-0.26836 -0.688812,-0.77431 -0.978916,-1.09805 0.0048,-12.816686 -0.01357,-25.633923 0.08915,-38.450267 0.08012,-2.316757 -0.02454,-4.666746 0.419066,-6.951684 0.253441,-0.883715 1.269431,-1.29925 2.1253,-1.281434 6.269366,-0.246808 12.547337,-0.114275 18.8204,-0.157218 9.003123,-0.0058 18.006253,-0.0013 27.009378,-0.0028 z"
       style="fill:#000000;stroke-width:0.264583"
       id="path76" />
    <g
       style="font-style:normal;font-weight:normal;font-size:10.5833px;line-height:1.25;font-family:sans-serif;white-space:pre;shape-inside:url(#rect80);fill:#000000;fill-opacity:1;stroke:none"
       id="text78"
       transform="matrix(1,0,0,0.89051138,0.2778877,6.8167656)"
       aria-label="KG">
      <path
         d="m 64.805728,76.334409 c -3.191536,0 -5.705469,0.856836 -7.541016,2.56836 -1.835547,1.711523 -2.753906,4.058138 -2.753906,7.042968 0,2.951758 0.902604,5.293425 2.705078,7.021485 1.802474,1.719791 4.246029,2.578125 7.330078,2.578125 1.364258,0 2.687175,-0.144206 3.96875,-0.433594 1.281576,-0.289388 2.516406,-0.723958 3.707032,-1.302734 v -8.904297 h -7.441407 v 3.199219 h 2.916016 v 3.597656 c -0.338997,0.132291 -0.72435,0.230728 -1.154297,0.296875 -0.42168,0.05788 -0.880859,0.08789 -1.376953,0.08789 -1.827279,0 -3.236328,-0.533008 -4.228516,-1.599609 -0.992187,-1.066601 -1.488281,-2.581445 -1.488281,-4.541016 0,-1.976106 0.511849,-3.492448 1.537109,-4.550781 1.033529,-1.066601 2.500652,-1.599609 4.402344,-1.599609 1.02526,0 2.047461,0.144205 3.064453,0.433594 1.025261,0.289387 2.054362,0.727409 3.087891,1.314453 v -3.832032 c -1.000456,-0.454752 -2.066471,-0.797786 -3.199219,-1.029297 -1.124478,-0.23151 -2.303189,-0.347656 -3.535156,-0.347656 z m -28.921875,0.335938 v 18.515625 h 4.775391 v -7.292969 l 7.365234,7.292969 h 5.978516 l -9.833985,-9.748047 8.916016,-8.767578 h -5.542969 l -6.882812,6.757812 v -6.757812 z"
         style="font-style:normal;font-variant:normal;font-weight:bold;font-stretch:normal;font-size:25.4px;font-family:sans-serif;-inkscape-font-specification:'sans-serif Bold'"
         id="path136" />
    </g>
  </g>
</svg>
